<?xml version="1.0" encoding="UTF-8" standalone="no"?>
<!DOCTYPE svg PUBLIC "-//W3C//DTD SVG 1.1//EN"
 "http://www.w3.org/Graphics/SVG/1.1/DTD/svg11.dtd">
<!-- Generated by graphviz version 2.43.0 (0)
 -->
<!-- Title: g Pages: 1 -->
<svg width="382pt" height="212pt"
 viewBox="0.00 0.00 382.00 212.00" xmlns="http://www.w3.org/2000/svg" xmlns:xlink="http://www.w3.org/1999/xlink">
<g id="graph0" class="graph" transform="scale(1 1) rotate(0) translate(4 208)">
<title>g</title>
<polygon fill="white" stroke="transparent" points="-4,4 -4,-208 378,-208 378,4 -4,4"/>
<!-- node0 -->
<g id="node1" class="node">
<title>node0</title>
<polygon fill="none" stroke="black" points="173,-180.5 173,-203.5 243,-203.5 243,-180.5 173,-180.5"/>
<text text-anchor="middle" x="183.5" y="-188.3" font-family="Times,serif" font-size="14.00"> </text>
<polyline fill="none" stroke="black" points="194,-180.5 194,-203.5 "/>
<text text-anchor="middle" x="208" y="-188.3" font-family="Times,serif" font-size="14.00">G</text>
<polyline fill="none" stroke="black" points="222,-180.5 222,-203.5 "/>
<text text-anchor="middle" x="232.5" y="-188.3" font-family="Times,serif" font-size="14.00"> </text>
</g>
<!-- node1 -->
<g id="node2" class="node">
<title>node1</title>
<polygon fill="none" stroke="black" points="105.5,-120.5 105.5,-143.5 174.5,-143.5 174.5,-120.5 105.5,-120.5"/>
<text text-anchor="middle" x="116" y="-128.3" font-family="Times,serif" font-size="14.00"> </text>
<polyline fill="none" stroke="black" points="126.5,-120.5 126.5,-143.5 "/>
<text text-anchor="middle" x="140" y="-128.3" font-family="Times,serif" font-size="14.00">E</text>
<polyline fill="none" stroke="black" points="153.5,-120.5 153.5,-143.5 "/>
<text text-anchor="middle" x="164" y="-128.3" font-family="Times,serif" font-size="14.00"> </text>
</g>
<!-- node0&#45;&gt;node1 -->
<g id="edge2" class="edge">
<title>node0:f0&#45;&gt;node1:f1</title>
<path fill="none" stroke="black" d="M183,-180C183,-159.36 153.51,-165.31 143.37,-153.81"/>
<polygon fill="black" stroke="black" points="146.56,-152.32 140,-144 139.94,-154.59 146.56,-152.32"/>
</g>
<!-- node4 -->
<g id="node5" class="node">
<title>node4</title>
<polygon fill="none" stroke="black" points="241.5,-120.5 241.5,-143.5 310.5,-143.5 310.5,-120.5 241.5,-120.5"/>
<text text-anchor="middle" x="252" y="-128.3" font-family="Times,serif" font-size="14.00"> </text>
<polyline fill="none" stroke="black" points="262.5,-120.5 262.5,-143.5 "/>
<text text-anchor="middle" x="276" y="-128.3" font-family="Times,serif" font-size="14.00">R</text>
<polyline fill="none" stroke="black" points="289.5,-120.5 289.5,-143.5 "/>
<text text-anchor="middle" x="300" y="-128.3" font-family="Times,serif" font-size="14.00"> </text>
</g>
<!-- node0&#45;&gt;node4 -->
<g id="edge1" class="edge">
<title>node0:f2&#45;&gt;node4:f1</title>
<path fill="none" stroke="black" d="M233,-180C233,-159.36 262.49,-165.31 272.63,-153.81"/>
<polygon fill="black" stroke="black" points="276.06,-154.59 276,-144 269.44,-152.32 276.06,-154.59"/>
</g>
<!-- node2 -->
<g id="node3" class="node">
<title>node2</title>
<polygon fill="none" stroke="black" points="42.5,-60.5 42.5,-83.5 111.5,-83.5 111.5,-60.5 42.5,-60.5"/>
<text text-anchor="middle" x="53" y="-68.3" font-family="Times,serif" font-size="14.00"> </text>
<polyline fill="none" stroke="black" points="63.5,-60.5 63.5,-83.5 "/>
<text text-anchor="middle" x="77" y="-68.3" font-family="Times,serif" font-size="14.00">B</text>
<polyline fill="none" stroke="black" points="90.5,-60.5 90.5,-83.5 "/>
<text text-anchor="middle" x="101" y="-68.3" font-family="Times,serif" font-size="14.00"> </text>
</g>
<!-- node1&#45;&gt;node2 -->
<g id="edge3" class="edge">
<title>node1:f0&#45;&gt;node2:f1</title>
<path fill="none" stroke="black" d="M116,-120C116,-100.65 89.76,-104.69 80.33,-93.75"/>
<polygon fill="black" stroke="black" points="83.54,-92.34 77,-84 76.91,-94.59 83.54,-92.34"/>
</g>
<!-- node3 -->
<g id="node4" class="node">
<title>node3</title>
<polygon fill="none" stroke="black" points="130,-60.5 130,-83.5 198,-83.5 198,-60.5 130,-60.5"/>
<text text-anchor="middle" x="140.5" y="-68.3" font-family="Times,serif" font-size="14.00"> </text>
<polyline fill="none" stroke="black" points="151,-60.5 151,-83.5 "/>
<text text-anchor="middle" x="164" y="-68.3" font-family="Times,serif" font-size="14.00">F</text>
<polyline fill="none" stroke="black" points="177,-60.5 177,-83.5 "/>
<text text-anchor="middle" x="187.5" y="-68.3" font-family="Times,serif" font-size="14.00"> </text>
</g>
<!-- node1&#45;&gt;node3 -->
<g id="edge4" class="edge">
<title>node1:f2&#45;&gt;node3:f1</title>
<path fill="none" stroke="black" d="M164,-120C164,-108 164,-102.75 164,-94.12"/>
<polygon fill="black" stroke="black" points="167.5,-94 164,-84 160.5,-94 167.5,-94"/>
</g>
<!-- node7 -->
<g id="node8" class="node">
<title>node7</title>
<polygon fill="none" stroke="black" points="0,-0.5 0,-23.5 68,-23.5 68,-0.5 0,-0.5"/>
<text text-anchor="middle" x="10.5" y="-8.3" font-family="Times,serif" font-size="14.00"> </text>
<polyline fill="none" stroke="black" points="21,-0.5 21,-23.5 "/>
<text text-anchor="middle" x="34" y="-8.3" font-family="Times,serif" font-size="14.00">A</text>
<polyline fill="none" stroke="black" points="47,-0.5 47,-23.5 "/>
<text text-anchor="middle" x="57.5" y="-8.3" font-family="Times,serif" font-size="14.00"> </text>
</g>
<!-- node2&#45;&gt;node7 -->
<g id="edge6" class="edge">
<title>node2:f0&#45;&gt;node7:f1</title>
<path fill="none" stroke="black" d="M53,-60C53,-46.01 41.63,-42.95 36.48,-33.91"/>
<polygon fill="black" stroke="black" points="39.83,-32.85 34,-24 33.04,-34.55 39.83,-32.85"/>
</g>
<!-- node8 -->
<g id="node9" class="node">
<title>node8</title>
<polygon fill="none" stroke="black" points="86.5,-0.5 86.5,-23.5 155.5,-23.5 155.5,-0.5 86.5,-0.5"/>
<text text-anchor="middle" x="97" y="-8.3" font-family="Times,serif" font-size="14.00"> </text>
<polyline fill="none" stroke="black" points="107.5,-0.5 107.5,-23.5 "/>
<text text-anchor="middle" x="121" y="-8.3" font-family="Times,serif" font-size="14.00">C</text>
<polyline fill="none" stroke="black" points="134.5,-0.5 134.5,-23.5 "/>
<text text-anchor="middle" x="145" y="-8.3" font-family="Times,serif" font-size="14.00"> </text>
</g>
<!-- node2&#45;&gt;node8 -->
<g id="edge5" class="edge">
<title>node2:f2&#45;&gt;node8:f1</title>
<path fill="none" stroke="black" d="M101,-60C101,-45.84 112.96,-43 118.39,-33.97"/>
<polygon fill="black" stroke="black" points="121.85,-34.56 121,-24 115.08,-32.78 121.85,-34.56"/>
</g>
<!-- node5 -->
<g id="node6" class="node">
<title>node5</title>
<polygon fill="none" stroke="black" points="216.5,-60.5 216.5,-83.5 287.5,-83.5 287.5,-60.5 216.5,-60.5"/>
<text text-anchor="middle" x="227" y="-68.3" font-family="Times,serif" font-size="14.00"> </text>
<polyline fill="none" stroke="black" points="237.5,-60.5 237.5,-83.5 "/>
<text text-anchor="middle" x="252" y="-68.3" font-family="Times,serif" font-size="14.00">H</text>
<polyline fill="none" stroke="black" points="266.5,-60.5 266.5,-83.5 "/>
<text text-anchor="middle" x="277" y="-68.3" font-family="Times,serif" font-size="14.00"> </text>
</g>
<!-- node4&#45;&gt;node5 -->
<g id="edge8" class="edge">
<title>node4:f0&#45;&gt;node5:f1</title>
<path fill="none" stroke="black" d="M252,-120C252,-108 252,-102.75 252,-94.12"/>
<polygon fill="black" stroke="black" points="255.5,-94 252,-84 248.5,-94 255.5,-94"/>
</g>
<!-- node6 -->
<g id="node7" class="node">
<title>node6</title>
<polygon fill="none" stroke="black" points="306,-60.5 306,-83.5 374,-83.5 374,-60.5 306,-60.5"/>
<text text-anchor="middle" x="316.5" y="-68.3" font-family="Times,serif" font-size="14.00"> </text>
<polyline fill="none" stroke="black" points="327,-60.5 327,-83.5 "/>
<text text-anchor="middle" x="340" y="-68.3" font-family="Times,serif" font-size="14.00">Y</text>
<polyline fill="none" stroke="black" points="353,-60.5 353,-83.5 "/>
<text text-anchor="middle" x="363.5" y="-68.3" font-family="Times,serif" font-size="14.00"> </text>
</g>
<!-- node4&#45;&gt;node6 -->
<g id="edge7" class="edge">
<title>node4:f2&#45;&gt;node6:f1</title>
<path fill="none" stroke="black" d="M300,-120C300,-100.19 327.43,-104.91 336.86,-93.53"/>
<polygon fill="black" stroke="black" points="340.2,-94.59 340,-84 333.55,-92.4 340.2,-94.59"/>
</g>
</g>
</svg>
