<?xml version="1.0" encoding="UTF-8" standalone="no"?>
<!DOCTYPE svg PUBLIC "-//W3C//DTD SVG 1.1//EN"
 "http://www.w3.org/Graphics/SVG/1.1/DTD/svg11.dtd">
<!-- Generated by graphviz version 2.43.0 (0)
 -->
<!-- Title: ER Pages: 1 -->
<svg width="378pt" height="652pt"
 viewBox="0.00 0.00 378.08 652.00" xmlns="http://www.w3.org/2000/svg" xmlns:xlink="http://www.w3.org/1999/xlink">
<g id="graph0" class="graph" transform="scale(1 1) rotate(0) translate(4 648)">
<title>ER</title>
<polygon fill="white" stroke="transparent" points="-4,4 -4,-648 374.08,-648 374.08,4 -4,4"/>
<text text-anchor="middle" x="185.04" y="-32" font-family="Times,serif" font-size="20.00">Entity Relation Diagram</text>
<text text-anchor="middle" x="185.04" y="-10" font-family="Times,serif" font-size="20.00">drawn by NEATO</text>
<!-- course -->
<g id="node1" class="node">
<title>course</title>
<polygon fill="none" stroke="black" points="323.4,-571 259.4,-571 259.4,-535 323.4,-535 323.4,-571"/>
<text text-anchor="middle" x="291.4" y="-549.3" font-family="Times,serif" font-size="14.00">course</text>
</g>
<!-- C&#45;I -->
<g id="node10" class="node">
<title>C&#45;I</title>
<polygon fill="lightgrey" stroke="lightgrey" points="255.4,-484 221.38,-466 255.4,-448 289.41,-466 255.4,-484"/>
<text text-anchor="middle" x="255.4" y="-462.3" font-family="Times,serif" font-size="14.00">C&#45;I</text>
</g>
<!-- course&#45;&#45;C&#45;I -->
<g id="edge3" class="edge">
<title>course&#45;&#45;C&#45;I</title>
<path fill="none" stroke="black" d="M284.11,-534.8C277.41,-518.98 267.6,-495.82 261.36,-481.08"/>
<text text-anchor="middle" x="281.4" y="-505.8" font-family="Times,serif" font-size="14.00">n</text>
</g>
<!-- institute -->
<g id="node2" class="node">
<title>institute</title>
<polygon fill="none" stroke="black" points="281.9,-397 204.9,-397 204.9,-361 281.9,-361 281.9,-397"/>
<text text-anchor="middle" x="243.4" y="-375.3" font-family="Times,serif" font-size="14.00">institute</text>
</g>
<!-- name1 -->
<g id="node5" class="node">
<title>name1</title>
<ellipse fill="none" stroke="black" cx="156.4" cy="-292" rx="36.29" ry="18"/>
<text text-anchor="middle" x="156.4" y="-288.3" font-family="Times,serif" font-size="14.00">name</text>
</g>
<!-- institute&#45;&#45;name1 -->
<g id="edge5" class="edge">
<title>institute&#45;&#45;name1</title>
<path fill="none" stroke="black" d="M225.79,-360.8C210.1,-345.47 187.34,-323.24 172.22,-308.46"/>
</g>
<!-- S&#45;I -->
<g id="node12" class="node">
<title>S&#45;I</title>
<polygon fill="lightgrey" stroke="lightgrey" points="243.4,-310 210.22,-292 243.4,-274 276.58,-292 243.4,-310"/>
<text text-anchor="middle" x="243.4" y="-288.3" font-family="Times,serif" font-size="14.00">S&#45;I</text>
</g>
<!-- institute&#45;&#45;S&#45;I -->
<g id="edge6" class="edge">
<title>institute&#45;&#45;S&#45;I</title>
<path fill="none" stroke="black" d="M243.4,-360.8C243.4,-346.05 243.4,-324.92 243.4,-310.18"/>
<text text-anchor="middle" x="248.4" y="-331.8" font-family="Times,serif" font-size="14.00">1</text>
</g>
<!-- student -->
<g id="node3" class="node">
<title>student</title>
<polygon fill="none" stroke="black" points="265.9,-223 194.9,-223 194.9,-187 265.9,-187 265.9,-223"/>
<text text-anchor="middle" x="230.4" y="-201.3" font-family="Times,serif" font-size="14.00">student</text>
</g>
<!-- name2 -->
<g id="node6" class="node">
<title>name2</title>
<ellipse fill="none" stroke="black" cx="36.4" cy="-118" rx="36.29" ry="18"/>
<text text-anchor="middle" x="36.4" y="-114.3" font-family="Times,serif" font-size="14.00">name</text>
</g>
<!-- student&#45;&#45;name2 -->
<g id="edge9" class="edge">
<title>student&#45;&#45;name2</title>
<path fill="none" stroke="black" d="M194.81,-188.41C156.64,-171.68 96.9,-145.51 62.73,-130.54"/>
</g>
<!-- grade -->
<g id="node8" class="node">
<title>grade</title>
<ellipse fill="none" stroke="black" cx="128.4" cy="-118" rx="37.89" ry="18"/>
<text text-anchor="middle" x="128.4" y="-114.3" font-family="Times,serif" font-size="14.00">grade</text>
</g>
<!-- student&#45;&#45;grade -->
<g id="edge8" class="edge">
<title>student&#45;&#45;grade</title>
<path fill="none" stroke="black" d="M209.76,-186.8C191.13,-171.28 164,-148.67 146.28,-133.9"/>
</g>
<!-- number -->
<g id="node9" class="node">
<title>number</title>
<ellipse fill="none" stroke="black" cx="230.4" cy="-118" rx="46.59" ry="18"/>
<text text-anchor="middle" x="230.4" y="-114.3" font-family="Times,serif" font-size="14.00">number</text>
</g>
<!-- student&#45;&#45;number -->
<g id="edge10" class="edge">
<title>student&#45;&#45;number</title>
<path fill="none" stroke="black" d="M230.4,-186.8C230.4,-172.05 230.4,-150.92 230.4,-136.18"/>
</g>
<!-- S&#45;C -->
<g id="node11" class="node">
<title>S&#45;C</title>
<polygon fill="lightgrey" stroke="lightgrey" points="332.4,-136 294.52,-118 332.4,-100 370.27,-118 332.4,-136"/>
<text text-anchor="middle" x="332.4" y="-114.3" font-family="Times,serif" font-size="14.00">S&#45;C</text>
</g>
<!-- student&#45;&#45;S&#45;C -->
<g id="edge11" class="edge">
<title>student&#45;&#45;S&#45;C</title>
<path fill="none" stroke="black" d="M251.04,-186.8C271.41,-169.82 301.95,-144.37 319.24,-129.97"/>
<text text-anchor="middle" x="295.4" y="-157.8" font-family="Times,serif" font-size="14.00">m</text>
</g>
<!-- name0 -->
<g id="node4" class="node">
<title>name0</title>
<ellipse fill="none" stroke="black" cx="248.4" cy="-626" rx="36.29" ry="18"/>
<text text-anchor="middle" x="248.4" y="-622.3" font-family="Times,serif" font-size="14.00">name</text>
</g>
<!-- name0&#45;&#45;course -->
<g id="edge1" class="edge">
<title>name0&#45;&#45;course</title>
<path fill="none" stroke="black" d="M258.37,-608.53C265.12,-597.39 274.02,-582.7 280.88,-571.37"/>
</g>
<!-- code -->
<g id="node7" class="node">
<title>code</title>
<ellipse fill="none" stroke="black" cx="335.4" cy="-626" rx="32.49" ry="18"/>
<text text-anchor="middle" x="335.4" y="-622.3" font-family="Times,serif" font-size="14.00">code</text>
</g>
<!-- code&#45;&#45;course -->
<g id="edge2" class="edge">
<title>code&#45;&#45;course</title>
<path fill="none" stroke="black" d="M325.19,-608.53C318.29,-597.39 309.18,-582.7 302.16,-571.37"/>
</g>
<!-- C&#45;I&#45;&#45;institute -->
<g id="edge4" class="edge">
<title>C&#45;I&#45;&#45;institute</title>
<path fill="none" stroke="black" d="M253.14,-449.01C251.05,-434.2 247.95,-412.23 245.81,-397.08"/>
<text text-anchor="middle" x="255.4" y="-418.8" font-family="Times,serif" font-size="14.00">1</text>
</g>
<!-- S&#45;C&#45;&#45;course -->
<g id="edge12" class="edge">
<title>S&#45;C&#45;&#45;course</title>
<path fill="none" stroke="black" d="M330.87,-135.28C329.4,-152.38 327.4,-180.05 327.4,-204 327.4,-467 327.4,-467 327.4,-467 327.4,-492.16 313.86,-518.43 303.38,-534.98"/>
<text text-anchor="middle" x="332.4" y="-331.8" font-family="Times,serif" font-size="14.00">n</text>
</g>
<!-- S&#45;I&#45;&#45;student -->
<g id="edge7" class="edge">
<title>S&#45;I&#45;&#45;student</title>
<path fill="none" stroke="black" d="M240.95,-275.01C238.69,-260.2 235.33,-238.23 233.01,-223.08"/>
<text text-anchor="middle" x="243.4" y="-244.8" font-family="Times,serif" font-size="14.00">n</text>
</g>
</g>
</svg>
