<?xml version="1.0" encoding="UTF-8" standalone="no"?>
<!DOCTYPE svg PUBLIC "-//W3C//DTD SVG 1.1//EN"
 "http://www.w3.org/Graphics/SVG/1.1/DTD/svg11.dtd">
<!-- Generated by graphviz version 2.43.0 (0)
 -->
<!-- Title: G Pages: 1 -->
<svg width="426pt" height="164pt"
 viewBox="0.00 0.00 426.00 164.00" xmlns="http://www.w3.org/2000/svg" xmlns:xlink="http://www.w3.org/1999/xlink">
<g id="graph0" class="graph" transform="scale(1 1) rotate(0) translate(4 160)">
<title>G</title>
<polygon fill="white" stroke="transparent" points="-4,4 -4,-160 422,-160 422,4 -4,4"/>
<g id="clust1" class="cluster">
<title>clusterA</title>
<polygon fill="none" stroke="black" points="182,-8 182,-148 332,-148 332,-8 182,-8"/>
</g>
<g id="clust2" class="cluster">
<title>clusterC</title>
<polygon fill="none" stroke="black" points="254,-16 254,-140 324,-140 324,-16 254,-16"/>
</g>
<g id="clust3" class="cluster">
<title>clusterB</title>
<polygon fill="none" stroke="black" points="340,-16 340,-140 410,-140 410,-16 340,-16"/>
</g>
<!-- e -->
<g id="node1" class="node">
<title>e</title>
<ellipse fill="none" stroke="black" cx="27" cy="-114" rx="27" ry="18"/>
<text text-anchor="middle" x="27" y="-110.3" font-family="Times,serif" font-size="14.00">e</text>
</g>
<!-- clusterB -->
<g id="node8" class="node">
<title>clusterB</title>
<ellipse fill="none" stroke="black" cx="74" cy="-42" rx="50.09" ry="18"/>
<text text-anchor="middle" x="74" y="-38.3" font-family="Times,serif" font-size="14.00">clusterB</text>
</g>
<!-- e&#45;&#45;clusterB -->
<g id="edge5" class="edge">
<title>e&#45;&#45;clusterB</title>
<path fill="none" stroke="black" d="M37.67,-97.12C45.14,-85.98 55.11,-71.13 62.72,-59.8"/>
</g>
<!-- a -->
<g id="node2" class="node">
<title>a</title>
<ellipse fill="none" stroke="black" cx="217" cy="-114" rx="27" ry="18"/>
<text text-anchor="middle" x="217" y="-110.3" font-family="Times,serif" font-size="14.00">a</text>
</g>
<!-- b -->
<g id="node3" class="node">
<title>b</title>
<ellipse fill="none" stroke="black" cx="217" cy="-42" rx="27" ry="18"/>
<text text-anchor="middle" x="217" y="-38.3" font-family="Times,serif" font-size="14.00">b</text>
</g>
<!-- a&#45;&#45;b -->
<g id="edge1" class="edge">
<title>a&#45;&#45;b</title>
<path fill="none" stroke="black" d="M217,-95.7C217,-84.85 217,-70.92 217,-60.1"/>
</g>
<!-- C -->
<g id="node4" class="node">
<title>C</title>
<ellipse fill="none" stroke="black" cx="289" cy="-114" rx="27" ry="18"/>
<text text-anchor="middle" x="289" y="-110.3" font-family="Times,serif" font-size="14.00">C</text>
</g>
<!-- D -->
<g id="node5" class="node">
<title>D</title>
<ellipse fill="none" stroke="black" cx="289" cy="-42" rx="27" ry="18"/>
<text text-anchor="middle" x="289" y="-38.3" font-family="Times,serif" font-size="14.00">D</text>
</g>
<!-- C&#45;&#45;D -->
<g id="edge2" class="edge">
<title>C&#45;&#45;D</title>
<path fill="none" stroke="black" d="M289,-95.7C289,-84.85 289,-70.92 289,-60.1"/>
</g>
<!-- d -->
<g id="node6" class="node">
<title>d</title>
<ellipse fill="none" stroke="black" cx="375" cy="-114" rx="27" ry="18"/>
<text text-anchor="middle" x="375" y="-110.3" font-family="Times,serif" font-size="14.00">d</text>
</g>
<!-- d&#45;&#45;D -->
<g id="edge4" class="edge">
<title>d&#45;&#45;D</title>
<path fill="none" stroke="black" d="M358.42,-99.5C343.19,-87.11 320.74,-68.84 305.53,-56.46"/>
</g>
<!-- f -->
<g id="node7" class="node">
<title>f</title>
<ellipse fill="none" stroke="black" cx="375" cy="-42" rx="27" ry="18"/>
<text text-anchor="middle" x="375" y="-38.3" font-family="Times,serif" font-size="14.00">f</text>
</g>
<!-- d&#45;&#45;f -->
<g id="edge3" class="edge">
<title>d&#45;&#45;f</title>
<path fill="none" stroke="black" d="M375,-95.7C375,-84.85 375,-70.92 375,-60.1"/>
</g>
<!-- clusterC -->
<g id="node9" class="node">
<title>clusterC</title>
<ellipse fill="none" stroke="black" cx="122" cy="-114" rx="50.09" ry="18"/>
<text text-anchor="middle" x="122" y="-110.3" font-family="Times,serif" font-size="14.00">clusterC</text>
</g>
<!-- clusterC&#45;&#45;clusterB -->
<g id="edge6" class="edge">
<title>clusterC&#45;&#45;clusterB</title>
<path fill="none" stroke="black" d="M110.62,-96.41C103.08,-85.41 93.22,-71.03 85.63,-59.96"/>
</g>
</g>
</svg>
