<?xml version="1.0" encoding="UTF-8" standalone="no"?>
<!DOCTYPE svg PUBLIC "-//W3C//DTD SVG 1.1//EN"
 "http://www.w3.org/Graphics/SVG/1.1/DTD/svg11.dtd">
<!-- Generated by graphviz version 2.43.0 (0)
 -->
<!-- Title: G Pages: 1 -->
<svg width="318pt" height="476pt"
 viewBox="0.00 0.00 317.98 476.00" xmlns="http://www.w3.org/2000/svg" xmlns:xlink="http://www.w3.org/1999/xlink">
<g id="graph0" class="graph" transform="scale(1 1) rotate(0) translate(4 472)">
<title>G</title>
<polygon fill="white" stroke="transparent" points="-4,4 -4,-472 313.98,-472 313.98,4 -4,4"/>
<!-- run -->
<g id="node1" class="node">
<title>run</title>
<ellipse fill="none" stroke="black" cx="91.75" cy="-450" rx="27" ry="18"/>
<text text-anchor="middle" x="91.75" y="-446.3" font-family="Times,serif" font-size="14.00">run</text>
</g>
<!-- intr -->
<g id="node2" class="node">
<title>intr</title>
<ellipse fill="none" stroke="black" cx="35.75" cy="-378" rx="27.9" ry="18"/>
<text text-anchor="middle" x="35.75" y="-374.3" font-family="Times,serif" font-size="14.00">intr</text>
</g>
<!-- run&#45;&#45;intr -->
<g id="edge1" class="edge">
<title>run&#45;&#45;intr</title>
<path fill="none" stroke="black" d="M79.6,-433.81C70.33,-422.23 57.62,-406.34 48.26,-394.64"/>
</g>
<!-- kernel -->
<g id="node4" class="node">
<title>kernel</title>
<ellipse fill="none" stroke="black" cx="194.75" cy="-378" rx="40.09" ry="18"/>
<text text-anchor="middle" x="194.75" y="-374.3" font-family="Times,serif" font-size="14.00">kernel</text>
</g>
<!-- run&#45;&#45;kernel -->
<g id="edge4" class="edge">
<title>run&#45;&#45;kernel</title>
<path fill="none" stroke="black" d="M110.16,-436.49C127.98,-424.37 154.97,-406.03 173.65,-393.34"/>
</g>
<!-- runbl -->
<g id="node3" class="node">
<title>runbl</title>
<ellipse fill="none" stroke="black" cx="35.75" cy="-306" rx="36" ry="18"/>
<text text-anchor="middle" x="35.75" y="-302.3" font-family="Times,serif" font-size="14.00">runbl</text>
</g>
<!-- intr&#45;&#45;runbl -->
<g id="edge2" class="edge">
<title>intr&#45;&#45;runbl</title>
<path fill="none" stroke="black" d="M35.75,-359.7C35.75,-348.85 35.75,-334.92 35.75,-324.1"/>
</g>
<!-- runbl&#45;&#45;run -->
<g id="edge3" class="edge">
<title>runbl&#45;&#45;run</title>
<path fill="none" stroke="black" d="M49.23,-322.7C57.19,-332.75 66.84,-346.41 72.75,-360 83.07,-383.76 87.97,-413.61 90.15,-431.99"/>
</g>
<!-- zombie -->
<g id="node5" class="node">
<title>zombie</title>
<ellipse fill="none" stroke="black" cx="133.75" cy="-306" rx="44.39" ry="18"/>
<text text-anchor="middle" x="133.75" y="-302.3" font-family="Times,serif" font-size="14.00">zombie</text>
</g>
<!-- kernel&#45;&#45;zombie -->
<g id="edge5" class="edge">
<title>kernel&#45;&#45;zombie</title>
<path fill="none" stroke="black" d="M180.6,-360.76C170.74,-349.46 157.66,-334.44 147.82,-323.15"/>
</g>
<!-- sleep -->
<g id="node6" class="node">
<title>sleep</title>
<ellipse fill="none" stroke="black" cx="230.75" cy="-306" rx="35.19" ry="18"/>
<text text-anchor="middle" x="230.75" y="-302.3" font-family="Times,serif" font-size="14.00">sleep</text>
</g>
<!-- kernel&#45;&#45;sleep -->
<g id="edge6" class="edge">
<title>kernel&#45;&#45;sleep</title>
<path fill="none" stroke="black" d="M203.46,-360.05C209.12,-349.05 216.47,-334.76 222.11,-323.79"/>
</g>
<!-- runmem -->
<g id="node7" class="node">
<title>runmem</title>
<ellipse fill="none" stroke="black" cx="220.75" cy="-18" rx="50.09" ry="18"/>
<text text-anchor="middle" x="220.75" y="-14.3" font-family="Times,serif" font-size="14.00">runmem</text>
</g>
<!-- kernel&#45;&#45;runmem -->
<g id="edge7" class="edge">
<title>kernel&#45;&#45;runmem</title>
<path fill="none" stroke="black" d="M221.99,-364.39C239.13,-355.27 260.6,-341.49 274.75,-324 301.48,-290.95 309.75,-277.5 309.75,-235 309.75,-235 309.75,-235 309.75,-161 309.75,-120.36 310.69,-106.21 288.75,-72 278.4,-55.87 261.4,-42.62 246.99,-33.4"/>
</g>
<!-- sleep&#45;&#45;runmem -->
<g id="edge13" class="edge">
<title>sleep&#45;&#45;runmem</title>
<path fill="none" stroke="black" d="M215.11,-289.62C205.86,-279.69 194.64,-266.04 187.75,-252 173.25,-222.49 174.55,-212.66 170.75,-180 168.9,-164.11 167.72,-159.71 170.75,-144 178.57,-103.38 199.48,-59.17 211.64,-35.76"/>
</g>
<!-- swap -->
<g id="node8" class="node">
<title>swap</title>
<ellipse fill="none" stroke="black" cx="230.75" cy="-234" rx="34.39" ry="18"/>
<text text-anchor="middle" x="230.75" y="-230.3" font-family="Times,serif" font-size="14.00">swap</text>
</g>
<!-- sleep&#45;&#45;swap -->
<g id="edge8" class="edge">
<title>sleep&#45;&#45;swap</title>
<path fill="none" stroke="black" d="M230.75,-287.7C230.75,-276.85 230.75,-262.92 230.75,-252.1"/>
</g>
<!-- runswap -->
<g id="node9" class="node">
<title>runswap</title>
<ellipse fill="none" stroke="black" cx="230.75" cy="-162" rx="50.89" ry="18"/>
<text text-anchor="middle" x="230.75" y="-158.3" font-family="Times,serif" font-size="14.00">runswap</text>
</g>
<!-- swap&#45;&#45;runswap -->
<g id="edge9" class="edge">
<title>swap&#45;&#45;runswap</title>
<path fill="none" stroke="black" d="M230.75,-215.7C230.75,-204.85 230.75,-190.92 230.75,-180.1"/>
</g>
<!-- runswap&#45;&#45;runmem -->
<g id="edge11" class="edge">
<title>runswap&#45;&#45;runmem</title>
<path fill="none" stroke="black" d="M222.44,-143.79C218.01,-133.63 213.01,-120.38 210.75,-108 206.23,-83.22 211.43,-54.16 215.86,-36.16"/>
</g>
<!-- new -->
<g id="node10" class="node">
<title>new</title>
<ellipse fill="none" stroke="black" cx="249.75" cy="-90" rx="29.8" ry="18"/>
<text text-anchor="middle" x="249.75" y="-86.3" font-family="Times,serif" font-size="14.00">new</text>
</g>
<!-- runswap&#45;&#45;new -->
<g id="edge10" class="edge">
<title>runswap&#45;&#45;new</title>
<path fill="none" stroke="black" d="M235.35,-144.05C238.29,-133.21 242.1,-119.18 245.06,-108.28"/>
</g>
<!-- new&#45;&#45;runmem -->
<g id="edge12" class="edge">
<title>new&#45;&#45;runmem</title>
<path fill="none" stroke="black" d="M242.87,-72.41C238.32,-61.41 232.36,-47.03 227.77,-35.96"/>
</g>
</g>
</svg>
