<?xml version="1.0" encoding="UTF-8" standalone="no"?>
<!DOCTYPE svg PUBLIC "-//W3C//DTD SVG 1.1//EN"
 "http://www.w3.org/Graphics/SVG/1.1/DTD/svg11.dtd">
<!-- Generated by graphviz version 2.43.0 (0)
 -->
<!-- Title: structs Pages: 1 -->
<svg width="296pt" height="151pt"
 viewBox="0.00 0.00 295.50 151.00" xmlns="http://www.w3.org/2000/svg" xmlns:xlink="http://www.w3.org/1999/xlink">
<g id="graph0" class="graph" transform="scale(1 1) rotate(0) translate(4 147)">
<title>structs</title>
<polygon fill="white" stroke="transparent" points="-4,4 -4,-147 291.5,-147 291.5,4 -4,4"/>
<!-- struct1 -->
<g id="node1" class="node">
<title>struct1</title>
<polygon fill="none" stroke="black" points="6.5,-106.5 6.5,-142.5 164.5,-142.5 164.5,-106.5 6.5,-106.5"/>
<text text-anchor="middle" x="27" y="-120.8" font-family="Times,serif" font-size="14.00">left</text>
<polyline fill="none" stroke="black" points="47.5,-106.5 47.5,-142.5 "/>
<text text-anchor="middle" x="80" y="-120.8" font-family="Times,serif" font-size="14.00">middle</text>
<polyline fill="none" stroke="black" points="112.5,-106.5 112.5,-142.5 "/>
<text text-anchor="middle" x="138.5" y="-120.8" font-family="Times,serif" font-size="14.00">right</text>
</g>
<!-- struct2 -->
<g id="node2" class="node">
<title>struct2</title>
<polygon fill="none" stroke="black" points="0,-17 0,-53 85,-53 85,-17 0,-17"/>
<text text-anchor="middle" x="21" y="-31.3" font-family="Times,serif" font-size="14.00">one</text>
<polyline fill="none" stroke="black" points="42,-17 42,-53 "/>
<text text-anchor="middle" x="63.5" y="-31.3" font-family="Times,serif" font-size="14.00">two</text>
</g>
<!-- struct1&#45;&gt;struct2 -->
<g id="edge1" class="edge">
<title>struct1:f1&#45;&gt;struct2:f0</title>
<path fill="none" stroke="black" d="M79.5,-106C79.5,-75.01 33.11,-85.57 22.6,-64"/>
<polygon fill="black" stroke="black" points="25.98,-63.07 20.5,-54 19.13,-64.51 25.98,-63.07"/>
</g>
<!-- struct3 -->
<g id="node3" class="node">
<title>struct3</title>
<polygon fill="none" stroke="black" points="103.5,-0.5 103.5,-69.5 287.5,-69.5 287.5,-0.5 103.5,-0.5"/>
<text text-anchor="middle" x="132" y="-38.8" font-family="Times,serif" font-size="14.00">hello</text>
<text text-anchor="middle" x="132" y="-23.8" font-family="Times,serif" font-size="14.00">world</text>
<polyline fill="none" stroke="black" points="160.5,-0.5 160.5,-69.5 "/>
<text text-anchor="middle" x="198" y="-54.3" font-family="Times,serif" font-size="14.00">b</text>
<polyline fill="none" stroke="black" points="160.5,-46.5 235.5,-46.5 "/>
<text text-anchor="middle" x="172.5" y="-31.3" font-family="Times,serif" font-size="14.00">c</text>
<polyline fill="none" stroke="black" points="184.5,-23.5 184.5,-46.5 "/>
<text text-anchor="middle" x="197.5" y="-31.3" font-family="Times,serif" font-size="14.00">d</text>
<polyline fill="none" stroke="black" points="210.5,-23.5 210.5,-46.5 "/>
<text text-anchor="middle" x="223" y="-31.3" font-family="Times,serif" font-size="14.00">e</text>
<polyline fill="none" stroke="black" points="160.5,-23.5 235.5,-23.5 "/>
<text text-anchor="middle" x="198" y="-8.3" font-family="Times,serif" font-size="14.00">f</text>
<polyline fill="none" stroke="black" points="235.5,-0.5 235.5,-69.5 "/>
<text text-anchor="middle" x="248.5" y="-31.3" font-family="Times,serif" font-size="14.00">g</text>
<polyline fill="none" stroke="black" points="261.5,-0.5 261.5,-69.5 "/>
<text text-anchor="middle" x="274.5" y="-31.3" font-family="Times,serif" font-size="14.00">h</text>
</g>
<!-- struct1&#45;&gt;struct3 -->
<g id="edge2" class="edge">
<title>struct1:f2&#45;&gt;struct3:here</title>
<path fill="none" stroke="black" d="M138.5,-106C138.5,-93.56 160.19,-70.1 177.27,-53.56"/>
<polygon fill="black" stroke="black" points="179.85,-55.94 184.7,-46.51 175.03,-50.86 179.85,-55.94"/>
</g>
</g>
</svg>
