<?xml version="1.0" encoding="UTF-8" standalone="no"?>
<!DOCTYPE svg PUBLIC "-//W3C//DTD SVG 1.1//EN"
 "http://www.w3.org/Graphics/SVG/1.1/DTD/svg11.dtd">
<!-- Generated by graphviz version 2.43.0 (0)
 -->
<!-- Title: TrafficLights Pages: 1 -->
<svg width="361pt" height="1073pt"
 viewBox="0.00 0.00 361.00 1073.00" xmlns="http://www.w3.org/2000/svg" xmlns:xlink="http://www.w3.org/1999/xlink">
<g id="graph0" class="graph" transform="scale(1 1) rotate(0) translate(4 1069)">
<title>TrafficLights</title>
<polygon fill="white" stroke="transparent" points="-4,4 -4,-1069 357,-1069 357,4 -4,4"/>
<text text-anchor="middle" x="176.5" y="-20.4" font-family="Times,serif" font-size="12.00">PetriNet Model TrafficLights</text>
<text text-anchor="middle" x="176.5" y="-7.4" font-family="Times,serif" font-size="12.00">Extracted from ConceptBase and layed out by Graphviz</text>
<!-- gy2 -->
<g id="node1" class="node">
<title>gy2</title>
<polygon fill="none" stroke="black" points="270.75,-1065 216.75,-1065 216.75,-1029 270.75,-1029 270.75,-1065"/>
<text text-anchor="middle" x="243.75" y="-1043.3" font-family="Times,serif" font-size="14.00">gy2</text>
</g>
<!-- yellow2 -->
<g id="node8" class="node">
<title>yellow2</title>
<ellipse fill="none" stroke="black" cx="213.75" cy="-960.5" rx="32.5" ry="32.5"/>
<text text-anchor="middle" x="213.75" y="-956.8" font-family="Times,serif" font-size="14.00">yellow2</text>
</g>
<!-- gy2&#45;&gt;yellow2 -->
<g id="edge1" class="edge">
<title>gy2&#45;&gt;yellow2</title>
<path fill="none" stroke="black" d="M237.68,-1028.9C234.83,-1020.87 231.3,-1010.94 227.84,-1001.18"/>
<polygon fill="black" stroke="black" points="231.07,-999.82 224.43,-991.57 224.47,-1002.17 231.07,-999.82"/>
</g>
<!-- yr2 -->
<g id="node2" class="node">
<title>yr2</title>
<polygon fill="none" stroke="black" points="210.75,-892 156.75,-892 156.75,-856 210.75,-856 210.75,-892"/>
<text text-anchor="middle" x="183.75" y="-870.3" font-family="Times,serif" font-size="14.00">yr2</text>
</g>
<!-- red2 -->
<g id="node9" class="node">
<title>red2</title>
<ellipse fill="none" stroke="black" cx="95.75" cy="-686.5" rx="32.5" ry="32.5"/>
<text text-anchor="middle" x="95.75" y="-682.8" font-family="Times,serif" font-size="14.00">red2</text>
</g>
<!-- yr2&#45;&gt;red2 -->
<g id="edge4" class="edge">
<title>yr2&#45;&gt;red2</title>
<path fill="none" stroke="black" d="M167.77,-855.91C159.16,-846.01 148.87,-832.97 141.75,-820 125.75,-790.85 113.73,-755.1 106,-728.08"/>
<polygon fill="black" stroke="black" points="109.29,-726.88 103.24,-718.19 102.55,-728.76 109.29,-726.88"/>
</g>
<!-- safe1 -->
<g id="node14" class="node">
<title>safe1</title>
<ellipse fill="none" stroke="black" cx="183.75" cy="-787.5" rx="32.5" ry="32.5"/>
<text text-anchor="middle" x="183.75" y="-783.8" font-family="Times,serif" font-size="14.00">safe1</text>
</g>
<!-- yr2&#45;&gt;safe1 -->
<g id="edge3" class="edge">
<title>yr2&#45;&gt;safe1</title>
<path fill="none" stroke="black" d="M183.75,-855.9C183.75,-848.47 183.75,-839.41 183.75,-830.38"/>
<polygon fill="black" stroke="black" points="187.25,-830.27 183.75,-820.27 180.25,-830.27 187.25,-830.27"/>
</g>
<!-- rg2 -->
<g id="node3" class="node">
<title>rg2</title>
<polygon fill="none" stroke="black" points="172.75,-171 118.75,-171 118.75,-135 172.75,-135 172.75,-171"/>
<text text-anchor="middle" x="145.75" y="-149.3" font-family="Times,serif" font-size="14.00">rg2</text>
</g>
<!-- green2 -->
<g id="node7" class="node">
<title>green2</title>
<ellipse fill="none" stroke="black" cx="217.75" cy="-66.5" rx="32.5" ry="32.5"/>
<text text-anchor="middle" x="217.75" y="-62.8" font-family="Times,serif" font-size="14.00">green2</text>
</g>
<!-- rg2&#45;&gt;green2 -->
<g id="edge2" class="edge">
<title>rg2&#45;&gt;green2</title>
<path fill="none" stroke="black" d="M160.32,-134.9C168.95,-124.77 180.16,-111.61 190.39,-99.62"/>
<polygon fill="black" stroke="black" points="193.1,-101.82 196.92,-91.94 187.77,-97.28 193.1,-101.82"/>
</g>
<!-- gy1 -->
<g id="node4" class="node">
<title>gy1</title>
<polygon fill="none" stroke="black" points="194.75,-517 140.75,-517 140.75,-481 194.75,-481 194.75,-517"/>
<text text-anchor="middle" x="167.75" y="-495.3" font-family="Times,serif" font-size="14.00">gy1</text>
</g>
<!-- yellow1 -->
<g id="node12" class="node">
<title>yellow1</title>
<ellipse fill="none" stroke="black" cx="167.75" cy="-412.5" rx="32.5" ry="32.5"/>
<text text-anchor="middle" x="167.75" y="-408.8" font-family="Times,serif" font-size="14.00">yellow1</text>
</g>
<!-- gy1&#45;&gt;yellow1 -->
<g id="edge9" class="edge">
<title>gy1&#45;&gt;yellow1</title>
<path fill="none" stroke="black" d="M167.75,-480.9C167.75,-473.47 167.75,-464.41 167.75,-455.38"/>
<polygon fill="black" stroke="black" points="171.25,-455.27 167.75,-445.27 164.25,-455.27 171.25,-455.27"/>
</g>
<!-- yr1 -->
<g id="node5" class="node">
<title>yr1</title>
<polygon fill="none" stroke="black" points="194.75,-344 140.75,-344 140.75,-308 194.75,-308 194.75,-344"/>
<text text-anchor="middle" x="167.75" y="-322.3" font-family="Times,serif" font-size="14.00">yr1</text>
</g>
<!-- safe2 -->
<g id="node10" class="node">
<title>safe2</title>
<ellipse fill="none" stroke="black" cx="145.75" cy="-239.5" rx="32.5" ry="32.5"/>
<text text-anchor="middle" x="145.75" y="-235.8" font-family="Times,serif" font-size="14.00">safe2</text>
</g>
<!-- yr1&#45;&gt;safe2 -->
<g id="edge11" class="edge">
<title>yr1&#45;&gt;safe2</title>
<path fill="none" stroke="black" d="M163.3,-307.9C161.27,-300.1 158.77,-290.5 156.3,-281.01"/>
<polygon fill="black" stroke="black" points="159.66,-280.04 153.76,-271.25 152.89,-281.81 159.66,-280.04"/>
</g>
<!-- red1 -->
<g id="node13" class="node">
<title>red1</title>
<ellipse fill="none" stroke="black" cx="228.75" cy="-239.5" rx="32.5" ry="32.5"/>
<text text-anchor="middle" x="228.75" y="-235.8" font-family="Times,serif" font-size="14.00">red1</text>
</g>
<!-- yr1&#45;&gt;red1 -->
<g id="edge12" class="edge">
<title>yr1&#45;&gt;red1</title>
<path fill="none" stroke="black" d="M180.09,-307.9C187.04,-298.28 195.97,-285.92 204.27,-274.41"/>
<polygon fill="black" stroke="black" points="207.15,-276.4 210.17,-266.24 201.48,-272.3 207.15,-276.4"/>
</g>
<!-- rg1 -->
<g id="node6" class="node">
<title>rg1</title>
<polygon fill="none" stroke="black" points="210.75,-704.5 156.75,-704.5 156.75,-668.5 210.75,-668.5 210.75,-704.5"/>
<text text-anchor="middle" x="183.75" y="-682.8" font-family="Times,serif" font-size="14.00">rg1</text>
</g>
<!-- green1 -->
<g id="node11" class="node">
<title>green1</title>
<ellipse fill="none" stroke="black" cx="167.75" cy="-585.5" rx="32.5" ry="32.5"/>
<text text-anchor="middle" x="167.75" y="-581.8" font-family="Times,serif" font-size="14.00">green1</text>
</g>
<!-- rg1&#45;&gt;green1 -->
<g id="edge10" class="edge">
<title>rg1&#45;&gt;green1</title>
<path fill="none" stroke="black" d="M180.96,-668.26C179.16,-657.11 176.74,-642.1 174.45,-627.99"/>
<polygon fill="black" stroke="black" points="177.88,-627.25 172.83,-617.93 170.97,-628.37 177.88,-627.25"/>
</g>
<!-- green2&#45;&gt;gy2 -->
<g id="edge6" class="edge">
<title>green2&#45;&gt;gy2</title>
<path fill="none" stroke="black" d="M236.29,-93.32C257.62,-125.62 289.75,-183.42 289.75,-238.5 289.75,-875 289.75,-875 289.75,-875 289.75,-927.66 269.16,-986.4 255.53,-1019.51"/>
<polygon fill="black" stroke="black" points="252.22,-1018.36 251.55,-1028.93 258.67,-1021.08 252.22,-1018.36"/>
</g>
<!-- yellow2&#45;&gt;yr2 -->
<g id="edge7" class="edge">
<title>yellow2&#45;&gt;yr2</title>
<path fill="none" stroke="black" d="M203.09,-929.47C199.86,-920.37 196.33,-910.45 193.19,-901.59"/>
<polygon fill="black" stroke="black" points="196.48,-900.4 189.84,-892.14 189.88,-902.74 196.48,-900.4"/>
</g>
<!-- red2&#45;&gt;rg2 -->
<g id="edge8" class="edge">
<title>red2&#45;&gt;rg2</title>
<path fill="none" stroke="black" d="M92.74,-654.02C89.49,-617.15 84.75,-554.2 84.75,-500 84.75,-500 84.75,-500 84.75,-325 84.75,-271.88 82.34,-255.61 103.75,-207 108.15,-197.01 114.9,-187.28 121.7,-178.95"/>
<polygon fill="black" stroke="black" points="124.57,-180.98 128.45,-171.12 119.27,-176.41 124.57,-180.98"/>
</g>
<!-- safe2&#45;&gt;rg2 -->
<g id="edge5" class="edge">
<title>safe2&#45;&gt;rg2</title>
<path fill="none" stroke="black" d="M145.75,-206.55C145.75,-198.33 145.75,-189.55 145.75,-181.57"/>
<polygon fill="black" stroke="black" points="149.25,-181.3 145.75,-171.3 142.25,-181.3 149.25,-181.3"/>
</g>
<!-- green1&#45;&gt;gy1 -->
<g id="edge14" class="edge">
<title>green1&#45;&gt;gy1</title>
<path fill="none" stroke="black" d="M167.75,-552.55C167.75,-544.33 167.75,-535.55 167.75,-527.57"/>
<polygon fill="black" stroke="black" points="171.25,-527.3 167.75,-517.3 164.25,-527.3 171.25,-527.3"/>
</g>
<!-- yellow1&#45;&gt;yr1 -->
<g id="edge15" class="edge">
<title>yellow1&#45;&gt;yr1</title>
<path fill="none" stroke="black" d="M167.75,-379.55C167.75,-371.33 167.75,-362.55 167.75,-354.57"/>
<polygon fill="black" stroke="black" points="171.25,-354.3 167.75,-344.3 164.25,-354.3 171.25,-354.3"/>
</g>
<!-- red1&#45;&gt;rg1 -->
<g id="edge16" class="edge">
<title>red1&#45;&gt;rg1</title>
<path fill="none" stroke="black" d="M228.75,-272.02C228.75,-306.33 228.75,-362.81 228.75,-411.5 228.75,-500 228.75,-500 228.75,-500 228.75,-553.12 223.59,-566.72 209.75,-618 206.01,-631.87 200.41,-646.83 195.38,-659.13"/>
<polygon fill="black" stroke="black" points="192.15,-657.77 191.5,-668.35 198.6,-660.49 192.15,-657.77"/>
</g>
<!-- safe1&#45;&gt;rg1 -->
<g id="edge13" class="edge">
<title>safe1&#45;&gt;rg1</title>
<path fill="none" stroke="black" d="M183.75,-754.9C183.75,-742.04 183.75,-727.3 183.75,-714.9"/>
<polygon fill="black" stroke="black" points="187.25,-714.7 183.75,-704.7 180.25,-714.7 187.25,-714.7"/>
</g>
</g>
</svg>
