<?xml version="1.0" encoding="UTF-8" standalone="no"?>
<!DOCTYPE svg PUBLIC "-//W3C//DTD SVG 1.1//EN"
 "http://www.w3.org/Graphics/SVG/1.1/DTD/svg11.dtd">
<!-- Generated by graphviz version 2.43.0 (0)
 -->
<!-- Title: unix Pages: 1 -->
<svg width="432pt" height="301pt"
 viewBox="0.00 0.00 432.00 300.88" xmlns="http://www.w3.org/2000/svg" xmlns:xlink="http://www.w3.org/1999/xlink">
<g id="graph0" class="graph" transform="scale(0.39 0.39) rotate(0) translate(4 760)">
<title>unix</title>
<polygon fill="white" stroke="transparent" points="-4,4 -4,-760 1092.94,-760 1092.94,4 -4,4"/>
<!-- 5th Edition -->
<g id="node1" class="node">
<title>5th Edition</title>
<ellipse fill="#b2dfee" stroke="#b2dfee" cx="573.5" cy="-738" rx="63.09" ry="18"/>
<text text-anchor="middle" x="573.5" y="-734.3" font-family="Times,serif" font-size="14.00">5th Edition</text>
</g>
<!-- 6th Edition -->
<g id="node2" class="node">
<title>6th Edition</title>
<ellipse fill="#b2dfee" stroke="#b2dfee" cx="468.5" cy="-666" rx="63.09" ry="18"/>
<text text-anchor="middle" x="468.5" y="-662.3" font-family="Times,serif" font-size="14.00">6th Edition</text>
</g>
<!-- 5th Edition&#45;&gt;6th Edition -->
<g id="edge1" class="edge">
<title>5th Edition&#45;&gt;6th Edition</title>
<path fill="none" stroke="black" d="M549.93,-721.29C535.44,-711.63 516.68,-699.12 500.82,-688.55"/>
<polygon fill="black" stroke="black" points="502.61,-685.53 492.35,-682.9 498.72,-691.36 502.61,-685.53"/>
</g>
<!-- PWB 1.0 -->
<g id="node3" class="node">
<title>PWB 1.0</title>
<ellipse fill="#b2dfee" stroke="#b2dfee" cx="748.5" cy="-666" rx="50.89" ry="18"/>
<text text-anchor="middle" x="748.5" y="-662.3" font-family="Times,serif" font-size="14.00">PWB 1.0</text>
</g>
<!-- 5th Edition&#45;&gt;PWB 1.0 -->
<g id="edge2" class="edge">
<title>5th Edition&#45;&gt;PWB 1.0</title>
<path fill="none" stroke="black" d="M608.49,-723C636.84,-711.66 676.86,-695.65 706.86,-683.65"/>
<polygon fill="black" stroke="black" points="708.24,-686.87 716.22,-679.91 705.64,-680.38 708.24,-686.87"/>
</g>
<!-- LSX -->
<g id="node4" class="node">
<title>LSX</title>
<ellipse fill="#b2dfee" stroke="#b2dfee" cx="650.5" cy="-594" rx="29.5" ry="18"/>
<text text-anchor="middle" x="650.5" y="-590.3" font-family="Times,serif" font-size="14.00">LSX</text>
</g>
<!-- 6th Edition&#45;&gt;LSX -->
<g id="edge3" class="edge">
<title>6th Edition&#45;&gt;LSX</title>
<path fill="none" stroke="black" d="M506.97,-651.64C536.13,-641.32 577.09,-626.42 612.5,-612 614.35,-611.24 616.26,-610.45 618.17,-609.64"/>
<polygon fill="black" stroke="black" points="619.92,-612.7 627.7,-605.5 617.13,-606.28 619.92,-612.7"/>
</g>
<!-- 1 BSD -->
<g id="node5" class="node">
<title>1 BSD</title>
<ellipse fill="#b2dfee" stroke="#b2dfee" cx="131.5" cy="-594" rx="40.09" ry="18"/>
<text text-anchor="middle" x="131.5" y="-590.3" font-family="Times,serif" font-size="14.00">1 BSD</text>
</g>
<!-- 6th Edition&#45;&gt;1 BSD -->
<g id="edge4" class="edge">
<title>6th Edition&#45;&gt;1 BSD</title>
<path fill="none" stroke="black" d="M417.91,-655.04C365.29,-644.6 280.53,-627.58 207.5,-612 197.48,-609.86 186.74,-607.5 176.58,-605.24"/>
<polygon fill="black" stroke="black" points="177.18,-601.79 166.65,-603.02 175.65,-608.62 177.18,-601.79"/>
</g>
<!-- Mini Unix -->
<g id="node6" class="node">
<title>Mini Unix</title>
<ellipse fill="#b2dfee" stroke="#b2dfee" cx="398.5" cy="-594" rx="56.59" ry="18"/>
<text text-anchor="middle" x="398.5" y="-590.3" font-family="Times,serif" font-size="14.00">Mini Unix</text>
</g>
<!-- 6th Edition&#45;&gt;Mini Unix -->
<g id="edge5" class="edge">
<title>6th Edition&#45;&gt;Mini Unix</title>
<path fill="none" stroke="black" d="M451.91,-648.41C443.02,-639.52 431.91,-628.41 422.13,-618.63"/>
<polygon fill="black" stroke="black" points="424.51,-616.07 414.97,-611.47 419.56,-621.02 424.51,-616.07"/>
</g>
<!-- Wollongong -->
<g id="node7" class="node">
<title>Wollongong</title>
<ellipse fill="#b2dfee" stroke="#b2dfee" cx="538.5" cy="-594" rx="64.99" ry="18"/>
<text text-anchor="middle" x="538.5" y="-590.3" font-family="Times,serif" font-size="14.00">Wollongong</text>
</g>
<!-- 6th Edition&#45;&gt;Wollongong -->
<g id="edge6" class="edge">
<title>6th Edition&#45;&gt;Wollongong</title>
<path fill="none" stroke="black" d="M485.09,-648.41C493.98,-639.52 505.09,-628.41 514.87,-618.63"/>
<polygon fill="black" stroke="black" points="517.43,-621.02 522.03,-611.47 512.48,-616.07 517.43,-621.02"/>
</g>
<!-- Interdata -->
<g id="node8" class="node">
<title>Interdata</title>
<ellipse fill="#b2dfee" stroke="#b2dfee" cx="270.5" cy="-594" rx="53.89" ry="18"/>
<text text-anchor="middle" x="270.5" y="-590.3" font-family="Times,serif" font-size="14.00">Interdata</text>
</g>
<!-- 6th Edition&#45;&gt;Interdata -->
<g id="edge7" class="edge">
<title>6th Edition&#45;&gt;Interdata</title>
<path fill="none" stroke="black" d="M430.32,-651.5C397.69,-639.97 350.68,-623.35 316.08,-611.12"/>
<polygon fill="black" stroke="black" points="316.82,-607.66 306.22,-607.63 314.49,-614.26 316.82,-607.66"/>
</g>
<!-- PWB 1.2 -->
<g id="node28" class="node">
<title>PWB 1.2</title>
<ellipse fill="#b2dfee" stroke="#b2dfee" cx="748.5" cy="-594" rx="50.89" ry="18"/>
<text text-anchor="middle" x="748.5" y="-590.3" font-family="Times,serif" font-size="14.00">PWB 1.2</text>
</g>
<!-- PWB 1.0&#45;&gt;PWB 1.2 -->
<g id="edge31" class="edge">
<title>PWB 1.0&#45;&gt;PWB 1.2</title>
<path fill="none" stroke="black" d="M748.5,-647.7C748.5,-639.98 748.5,-630.71 748.5,-622.11"/>
<polygon fill="black" stroke="black" points="752,-622.1 748.5,-612.1 745,-622.1 752,-622.1"/>
</g>
<!-- USG 1.0 -->
<g id="node29" class="node">
<title>USG 1.0</title>
<ellipse fill="#b2dfee" stroke="#b2dfee" cx="867.5" cy="-594" rx="50.09" ry="18"/>
<text text-anchor="middle" x="867.5" y="-590.3" font-family="Times,serif" font-size="14.00">USG 1.0</text>
</g>
<!-- PWB 1.0&#45;&gt;USG 1.0 -->
<g id="edge32" class="edge">
<title>PWB 1.0&#45;&gt;USG 1.0</title>
<path fill="none" stroke="black" d="M773.44,-650.33C790.98,-640.01 814.64,-626.1 833.84,-614.8"/>
<polygon fill="black" stroke="black" points="835.74,-617.74 842.58,-609.65 832.19,-611.71 835.74,-617.74"/>
</g>
<!-- 2 BSD -->
<g id="node19" class="node">
<title>2 BSD</title>
<ellipse fill="#b2dfee" stroke="#b2dfee" cx="81.5" cy="-234" rx="40.09" ry="18"/>
<text text-anchor="middle" x="81.5" y="-230.3" font-family="Times,serif" font-size="14.00">2 BSD</text>
</g>
<!-- 1 BSD&#45;&gt;2 BSD -->
<g id="edge19" class="edge">
<title>1 BSD&#45;&gt;2 BSD</title>
<path fill="none" stroke="black" d="M124.41,-575.85C114.19,-549.49 96.5,-497.21 96.5,-451 96.5,-451 96.5,-451 96.5,-377 96.5,-336.77 90.47,-290.49 86.06,-261.99"/>
<polygon fill="black" stroke="black" points="89.49,-261.31 84.46,-251.99 82.58,-262.41 89.49,-261.31"/>
</g>
<!-- Unix/TS 3.0 -->
<g id="node9" class="node">
<title>Unix/TS 3.0</title>
<ellipse fill="#b2dfee" stroke="#b2dfee" cx="662.5" cy="-378" rx="65.79" ry="18"/>
<text text-anchor="middle" x="662.5" y="-374.3" font-family="Times,serif" font-size="14.00">Unix/TS 3.0</text>
</g>
<!-- Interdata&#45;&gt;Unix/TS 3.0 -->
<g id="edge8" class="edge">
<title>Interdata&#45;&gt;Unix/TS 3.0</title>
<path fill="none" stroke="black" d="M297.44,-578.29C365.92,-540.91 546.77,-442.18 625.26,-399.33"/>
<polygon fill="black" stroke="black" points="627.22,-402.25 634.32,-394.38 623.86,-396.1 627.22,-402.25"/>
</g>
<!-- PWB 2.0 -->
<g id="node10" class="node">
<title>PWB 2.0</title>
<ellipse fill="#b2dfee" stroke="#b2dfee" cx="599.5" cy="-522" rx="50.89" ry="18"/>
<text text-anchor="middle" x="599.5" y="-518.3" font-family="Times,serif" font-size="14.00">PWB 2.0</text>
</g>
<!-- Interdata&#45;&gt;PWB 2.0 -->
<g id="edge9" class="edge">
<title>Interdata&#45;&gt;PWB 2.0</title>
<path fill="none" stroke="black" d="M310.05,-581.58C317.48,-579.6 325.2,-577.65 332.5,-576 421.45,-555.92 445.43,-559.55 534.5,-540 539.84,-538.83 545.4,-537.51 550.93,-536.15"/>
<polygon fill="black" stroke="black" points="551.94,-539.51 560.78,-533.66 550.23,-532.72 551.94,-539.51"/>
</g>
<!-- 7th Edition -->
<g id="node11" class="node">
<title>7th Edition</title>
<ellipse fill="#b2dfee" stroke="#b2dfee" cx="270.5" cy="-522" rx="63.09" ry="18"/>
<text text-anchor="middle" x="270.5" y="-518.3" font-family="Times,serif" font-size="14.00">7th Edition</text>
</g>
<!-- Interdata&#45;&gt;7th Edition -->
<g id="edge10" class="edge">
<title>Interdata&#45;&gt;7th Edition</title>
<path fill="none" stroke="black" d="M270.5,-575.7C270.5,-567.98 270.5,-558.71 270.5,-550.11"/>
<polygon fill="black" stroke="black" points="274,-550.1 270.5,-540.1 267,-550.1 274,-550.1"/>
</g>
<!-- TS 4.0 -->
<g id="node38" class="node">
<title>TS 4.0</title>
<ellipse fill="#b2dfee" stroke="#b2dfee" cx="768.5" cy="-234" rx="40.09" ry="18"/>
<text text-anchor="middle" x="768.5" y="-230.3" font-family="Times,serif" font-size="14.00">TS 4.0</text>
</g>
<!-- Unix/TS 3.0&#45;&gt;TS 4.0 -->
<g id="edge44" class="edge">
<title>Unix/TS 3.0&#45;&gt;TS 4.0</title>
<path fill="none" stroke="black" d="M675.07,-360.15C693.66,-335.25 728.58,-288.47 750.06,-259.7"/>
<polygon fill="black" stroke="black" points="753.09,-261.49 756.26,-251.39 747.48,-257.31 753.09,-261.49"/>
</g>
<!-- PWB 2.0&#45;&gt;Unix/TS 3.0 -->
<g id="edge42" class="edge">
<title>PWB 2.0&#45;&gt;Unix/TS 3.0</title>
<path fill="none" stroke="black" d="M596.52,-504C594.08,-485.37 592.58,-455.07 603.5,-432 609.21,-419.92 619.07,-409.38 629.12,-400.95"/>
<polygon fill="black" stroke="black" points="631.43,-403.59 637.13,-394.66 627.11,-398.08 631.43,-403.59"/>
</g>
<!-- 8th Edition -->
<g id="node12" class="node">
<title>8th Edition</title>
<ellipse fill="#b2dfee" stroke="#b2dfee" cx="508.5" cy="-162" rx="63.09" ry="18"/>
<text text-anchor="middle" x="508.5" y="-158.3" font-family="Times,serif" font-size="14.00">8th Edition</text>
</g>
<!-- 7th Edition&#45;&gt;8th Edition -->
<g id="edge11" class="edge">
<title>7th Edition&#45;&gt;8th Edition</title>
<path fill="none" stroke="black" d="M319.2,-510.39C373.02,-498.24 453.45,-478.64 463.5,-468 491.26,-438.59 482.5,-419.45 482.5,-379 482.5,-379 482.5,-379 482.5,-305 482.5,-264.55 492.83,-218.67 500.47,-190.28"/>
<polygon fill="black" stroke="black" points="503.93,-190.87 503.24,-180.3 497.19,-189 503.93,-190.87"/>
</g>
<!-- 32V -->
<g id="node13" class="node">
<title>32V</title>
<ellipse fill="#b2dfee" stroke="#b2dfee" cx="425.5" cy="-450" rx="28.7" ry="18"/>
<text text-anchor="middle" x="425.5" y="-446.3" font-family="Times,serif" font-size="14.00">32V</text>
</g>
<!-- 7th Edition&#45;&gt;32V -->
<g id="edge12" class="edge">
<title>7th Edition&#45;&gt;32V</title>
<path fill="none" stroke="black" d="M302.61,-506.5C329.31,-494.44 367.09,-477.38 393.7,-465.36"/>
<polygon fill="black" stroke="black" points="395.28,-468.49 402.95,-461.18 392.4,-462.11 395.28,-468.49"/>
</g>
<!-- V7M -->
<g id="node14" class="node">
<title>V7M</title>
<ellipse fill="#b2dfee" stroke="#b2dfee" cx="32.5" cy="-378" rx="32.49" ry="18"/>
<text text-anchor="middle" x="32.5" y="-374.3" font-family="Times,serif" font-size="14.00">V7M</text>
</g>
<!-- 7th Edition&#45;&gt;V7M -->
<g id="edge13" class="edge">
<title>7th Edition&#45;&gt;V7M</title>
<path fill="none" stroke="black" d="M228.33,-508.55C200.81,-499.45 164.7,-485.64 135.5,-468 104.6,-449.34 73.91,-421.27 54.18,-401.66"/>
<polygon fill="black" stroke="black" points="56.45,-398.97 46.92,-394.33 51.47,-403.9 56.45,-398.97"/>
</g>
<!-- Ultrix&#45;11 -->
<g id="node15" class="node">
<title>Ultrix&#45;11</title>
<ellipse fill="#b2dfee" stroke="#b2dfee" cx="107.5" cy="-90" rx="51.99" ry="18"/>
<text text-anchor="middle" x="107.5" y="-86.3" font-family="Times,serif" font-size="14.00">Ultrix&#45;11</text>
</g>
<!-- 7th Edition&#45;&gt;Ultrix&#45;11 -->
<g id="edge14" class="edge">
<title>7th Edition&#45;&gt;Ultrix&#45;11</title>
<path fill="none" stroke="black" d="M228.04,-508.56C207.11,-500.31 183.25,-487.37 168.5,-468 143.99,-435.82 149.5,-419.45 149.5,-379 149.5,-379 149.5,-379 149.5,-233 149.5,-191.15 132.51,-145.1 120.14,-117.11"/>
<polygon fill="black" stroke="black" points="123.33,-115.66 116,-108.01 116.95,-118.56 123.33,-115.66"/>
</g>
<!-- Xenix -->
<g id="node16" class="node">
<title>Xenix</title>
<ellipse fill="#b2dfee" stroke="#b2dfee" cx="213.5" cy="-450" rx="36.29" ry="18"/>
<text text-anchor="middle" x="213.5" y="-446.3" font-family="Times,serif" font-size="14.00">Xenix</text>
</g>
<!-- 7th Edition&#45;&gt;Xenix -->
<g id="edge15" class="edge">
<title>7th Edition&#45;&gt;Xenix</title>
<path fill="none" stroke="black" d="M256.99,-504.41C249.79,-495.57 240.8,-484.53 232.87,-474.79"/>
<polygon fill="black" stroke="black" points="235.54,-472.53 226.52,-466.99 230.12,-476.95 235.54,-472.53"/>
</g>
<!-- UniPlus+ -->
<g id="node17" class="node">
<title>UniPlus+</title>
<ellipse fill="#b2dfee" stroke="#b2dfee" cx="323.5" cy="-450" rx="55.49" ry="18"/>
<text text-anchor="middle" x="323.5" y="-446.3" font-family="Times,serif" font-size="14.00">UniPlus+</text>
</g>
<!-- 7th Edition&#45;&gt;UniPlus+ -->
<g id="edge16" class="edge">
<title>7th Edition&#45;&gt;UniPlus+</title>
<path fill="none" stroke="black" d="M283.33,-504.05C289.71,-495.63 297.54,-485.28 304.59,-475.97"/>
<polygon fill="black" stroke="black" points="307.54,-477.87 310.79,-467.79 301.96,-473.65 307.54,-477.87"/>
</g>
<!-- 9th Edition -->
<g id="node18" class="node">
<title>9th Edition</title>
<ellipse fill="#b2dfee" stroke="#b2dfee" cx="594.5" cy="-90" rx="63.09" ry="18"/>
<text text-anchor="middle" x="594.5" y="-86.3" font-family="Times,serif" font-size="14.00">9th Edition</text>
</g>
<!-- 8th Edition&#45;&gt;9th Edition -->
<g id="edge18" class="edge">
<title>8th Edition&#45;&gt;9th Edition</title>
<path fill="none" stroke="black" d="M528.44,-144.76C539.84,-135.49 554.31,-123.71 566.79,-113.55"/>
<polygon fill="black" stroke="black" points="569.11,-116.17 574.66,-107.15 564.69,-110.75 569.11,-116.17"/>
</g>
<!-- 3 BSD -->
<g id="node22" class="node">
<title>3 BSD</title>
<ellipse fill="#b2dfee" stroke="#b2dfee" cx="396.5" cy="-378" rx="40.09" ry="18"/>
<text text-anchor="middle" x="396.5" y="-374.3" font-family="Times,serif" font-size="14.00">3 BSD</text>
</g>
<!-- 32V&#45;&gt;3 BSD -->
<g id="edge23" class="edge">
<title>32V&#45;&gt;3 BSD</title>
<path fill="none" stroke="black" d="M418.62,-432.41C415.28,-424.34 411.18,-414.43 407.42,-405.35"/>
<polygon fill="black" stroke="black" points="410.58,-403.86 403.52,-395.96 404.12,-406.53 410.58,-403.86"/>
</g>
<!-- V7M&#45;&gt;Ultrix&#45;11 -->
<g id="edge17" class="edge">
<title>V7M&#45;&gt;Ultrix&#45;11</title>
<path fill="none" stroke="black" d="M29.53,-359.68C25.05,-329.73 18.47,-266.64 32.5,-216 43.09,-177.77 68.83,-139.49 87.19,-115.56"/>
<polygon fill="black" stroke="black" points="90.16,-117.44 93.59,-107.42 84.66,-113.12 90.16,-117.44"/>
</g>
<!-- 2.8 BSD -->
<g id="node20" class="node">
<title>2.8 BSD</title>
<ellipse fill="#b2dfee" stroke="#b2dfee" cx="226.5" cy="-162" rx="48.99" ry="18"/>
<text text-anchor="middle" x="226.5" y="-158.3" font-family="Times,serif" font-size="14.00">2.8 BSD</text>
</g>
<!-- 2 BSD&#45;&gt;2.8 BSD -->
<g id="edge20" class="edge">
<title>2 BSD&#45;&gt;2.8 BSD</title>
<path fill="none" stroke="black" d="M107.76,-220.32C130.43,-209.38 163.47,-193.43 188.94,-181.13"/>
<polygon fill="black" stroke="black" points="190.47,-184.28 197.95,-176.78 187.43,-177.98 190.47,-184.28"/>
</g>
<!-- 2.8 BSD&#45;&gt;Ultrix&#45;11 -->
<g id="edge21" class="edge">
<title>2.8 BSD&#45;&gt;Ultrix&#45;11</title>
<path fill="none" stroke="black" d="M201.55,-146.33C184.14,-136.08 160.68,-122.28 141.54,-111.03"/>
<polygon fill="black" stroke="black" points="143.21,-107.95 132.82,-105.9 139.67,-113.98 143.21,-107.95"/>
</g>
<!-- 2.9 BSD -->
<g id="node21" class="node">
<title>2.9 BSD</title>
<ellipse fill="#b2dfee" stroke="#b2dfee" cx="226.5" cy="-90" rx="48.99" ry="18"/>
<text text-anchor="middle" x="226.5" y="-86.3" font-family="Times,serif" font-size="14.00">2.9 BSD</text>
</g>
<!-- 2.8 BSD&#45;&gt;2.9 BSD -->
<g id="edge22" class="edge">
<title>2.8 BSD&#45;&gt;2.9 BSD</title>
<path fill="none" stroke="black" d="M226.5,-143.7C226.5,-135.98 226.5,-126.71 226.5,-118.11"/>
<polygon fill="black" stroke="black" points="230,-118.1 226.5,-108.1 223,-118.1 230,-118.1"/>
</g>
<!-- 4 BSD -->
<g id="node23" class="node">
<title>4 BSD</title>
<ellipse fill="#b2dfee" stroke="#b2dfee" cx="391.5" cy="-306" rx="40.09" ry="18"/>
<text text-anchor="middle" x="391.5" y="-302.3" font-family="Times,serif" font-size="14.00">4 BSD</text>
</g>
<!-- 3 BSD&#45;&gt;4 BSD -->
<g id="edge24" class="edge">
<title>3 BSD&#45;&gt;4 BSD</title>
<path fill="none" stroke="black" d="M395.26,-359.7C394.71,-351.98 394.05,-342.71 393.43,-334.11"/>
<polygon fill="black" stroke="black" points="396.92,-333.83 392.72,-324.1 389.94,-334.33 396.92,-333.83"/>
</g>
<!-- 4.1 BSD -->
<g id="node24" class="node">
<title>4.1 BSD</title>
<ellipse fill="#b2dfee" stroke="#b2dfee" cx="387.5" cy="-234" rx="48.99" ry="18"/>
<text text-anchor="middle" x="387.5" y="-230.3" font-family="Times,serif" font-size="14.00">4.1 BSD</text>
</g>
<!-- 4 BSD&#45;&gt;4.1 BSD -->
<g id="edge25" class="edge">
<title>4 BSD&#45;&gt;4.1 BSD</title>
<path fill="none" stroke="black" d="M390.51,-287.7C390.07,-279.98 389.54,-270.71 389.05,-262.11"/>
<polygon fill="black" stroke="black" points="392.54,-261.89 388.47,-252.1 385.55,-262.29 392.54,-261.89"/>
</g>
<!-- 4.1 BSD&#45;&gt;8th Edition -->
<g id="edge28" class="edge">
<title>4.1 BSD&#45;&gt;8th Edition</title>
<path fill="none" stroke="black" d="M412.57,-218.5C430.02,-208.4 453.54,-194.79 472.92,-183.58"/>
<polygon fill="black" stroke="black" points="474.88,-186.49 481.78,-178.46 471.37,-180.43 474.88,-186.49"/>
</g>
<!-- 4.1 BSD&#45;&gt;2.8 BSD -->
<g id="edge27" class="edge">
<title>4.1 BSD&#45;&gt;2.8 BSD</title>
<path fill="none" stroke="black" d="M357.21,-219.83C331.55,-208.67 294.54,-192.58 266.45,-180.37"/>
<polygon fill="black" stroke="black" points="267.48,-177 256.92,-176.23 264.69,-183.42 267.48,-177"/>
</g>
<!-- 4.2 BSD -->
<g id="node25" class="node">
<title>4.2 BSD</title>
<ellipse fill="#b2dfee" stroke="#b2dfee" cx="378.5" cy="-162" rx="48.99" ry="18"/>
<text text-anchor="middle" x="378.5" y="-158.3" font-family="Times,serif" font-size="14.00">4.2 BSD</text>
</g>
<!-- 4.1 BSD&#45;&gt;4.2 BSD -->
<g id="edge26" class="edge">
<title>4.1 BSD&#45;&gt;4.2 BSD</title>
<path fill="none" stroke="black" d="M385.27,-215.7C384.28,-207.98 383.09,-198.71 381.98,-190.11"/>
<polygon fill="black" stroke="black" points="385.44,-189.58 380.7,-180.1 378.5,-190.47 385.44,-189.58"/>
</g>
<!-- 4.3 BSD -->
<g id="node26" class="node">
<title>4.3 BSD</title>
<ellipse fill="#b2dfee" stroke="#b2dfee" cx="464.5" cy="-90" rx="48.99" ry="18"/>
<text text-anchor="middle" x="464.5" y="-86.3" font-family="Times,serif" font-size="14.00">4.3 BSD</text>
</g>
<!-- 4.2 BSD&#45;&gt;4.3 BSD -->
<g id="edge29" class="edge">
<title>4.2 BSD&#45;&gt;4.3 BSD</title>
<path fill="none" stroke="black" d="M398.01,-145.12C409.64,-135.65 424.57,-123.5 437.34,-113.11"/>
<polygon fill="black" stroke="black" points="439.81,-115.61 445.36,-106.58 435.39,-110.18 439.81,-115.61"/>
</g>
<!-- Ultrix&#45;32 -->
<g id="node27" class="node">
<title>Ultrix&#45;32</title>
<ellipse fill="#b2dfee" stroke="#b2dfee" cx="345.5" cy="-90" rx="51.99" ry="18"/>
<text text-anchor="middle" x="345.5" y="-86.3" font-family="Times,serif" font-size="14.00">Ultrix&#45;32</text>
</g>
<!-- 4.2 BSD&#45;&gt;Ultrix&#45;32 -->
<g id="edge30" class="edge">
<title>4.2 BSD&#45;&gt;Ultrix&#45;32</title>
<path fill="none" stroke="black" d="M370.51,-144.05C366.75,-136.09 362.19,-126.41 357.99,-117.51"/>
<polygon fill="black" stroke="black" points="361.07,-115.83 353.64,-108.28 354.74,-118.81 361.07,-115.83"/>
</g>
<!-- PWB 1.2&#45;&gt;PWB 2.0 -->
<g id="edge33" class="edge">
<title>PWB 1.2&#45;&gt;PWB 2.0</title>
<path fill="none" stroke="black" d="M719.06,-579.17C695.9,-568.29 663.43,-553.03 638.17,-541.17"/>
<polygon fill="black" stroke="black" points="639.41,-537.89 628.87,-536.8 636.44,-544.22 639.41,-537.89"/>
</g>
<!-- CB Unix 1 -->
<g id="node30" class="node">
<title>CB Unix 1</title>
<ellipse fill="#b2dfee" stroke="#b2dfee" cx="901.5" cy="-522" rx="57.69" ry="18"/>
<text text-anchor="middle" x="901.5" y="-518.3" font-family="Times,serif" font-size="14.00">CB Unix 1</text>
</g>
<!-- USG 1.0&#45;&gt;CB Unix 1 -->
<g id="edge34" class="edge">
<title>USG 1.0&#45;&gt;CB Unix 1</title>
<path fill="none" stroke="black" d="M875.73,-576.05C879.6,-568.09 884.3,-558.41 888.62,-549.51"/>
<polygon fill="black" stroke="black" points="891.89,-550.8 893.11,-540.28 885.59,-547.74 891.89,-550.8"/>
</g>
<!-- USG 2.0 -->
<g id="node31" class="node">
<title>USG 2.0</title>
<ellipse fill="#b2dfee" stroke="#b2dfee" cx="756.5" cy="-522" rx="50.09" ry="18"/>
<text text-anchor="middle" x="756.5" y="-518.3" font-family="Times,serif" font-size="14.00">USG 2.0</text>
</g>
<!-- USG 1.0&#45;&gt;USG 2.0 -->
<g id="edge35" class="edge">
<title>USG 1.0&#45;&gt;USG 2.0</title>
<path fill="none" stroke="black" d="M843.68,-577.98C827.74,-567.93 806.54,-554.56 789.04,-543.52"/>
<polygon fill="black" stroke="black" points="790.6,-540.37 780.27,-537.99 786.86,-546.29 790.6,-540.37"/>
</g>
<!-- CB Unix 2 -->
<g id="node32" class="node">
<title>CB Unix 2</title>
<ellipse fill="#b2dfee" stroke="#b2dfee" cx="937.5" cy="-450" rx="57.69" ry="18"/>
<text text-anchor="middle" x="937.5" y="-446.3" font-family="Times,serif" font-size="14.00">CB Unix 2</text>
</g>
<!-- CB Unix 1&#45;&gt;CB Unix 2 -->
<g id="edge36" class="edge">
<title>CB Unix 1&#45;&gt;CB Unix 2</title>
<path fill="none" stroke="black" d="M910.21,-504.05C914.35,-496.01 919.39,-486.2 924.01,-477.23"/>
<polygon fill="black" stroke="black" points="927.15,-478.77 928.61,-468.28 920.93,-475.57 927.15,-478.77"/>
</g>
<!-- USG 3.0 -->
<g id="node36" class="node">
<title>USG 3.0</title>
<ellipse fill="#b2dfee" stroke="#b2dfee" cx="662.5" cy="-450" rx="50.09" ry="18"/>
<text text-anchor="middle" x="662.5" y="-446.3" font-family="Times,serif" font-size="14.00">USG 3.0</text>
</g>
<!-- USG 2.0&#45;&gt;USG 3.0 -->
<g id="edge40" class="edge">
<title>USG 2.0&#45;&gt;USG 3.0</title>
<path fill="none" stroke="black" d="M735.64,-505.46C722.61,-495.77 705.67,-483.15 691.37,-472.5"/>
<polygon fill="black" stroke="black" points="693.41,-469.66 683.3,-466.49 689.23,-475.27 693.41,-469.66"/>
</g>
<!-- CB Unix 3 -->
<g id="node33" class="node">
<title>CB Unix 3</title>
<ellipse fill="#b2dfee" stroke="#b2dfee" cx="921.5" cy="-378" rx="57.69" ry="18"/>
<text text-anchor="middle" x="921.5" y="-374.3" font-family="Times,serif" font-size="14.00">CB Unix 3</text>
</g>
<!-- CB Unix 2&#45;&gt;CB Unix 3 -->
<g id="edge37" class="edge">
<title>CB Unix 2&#45;&gt;CB Unix 3</title>
<path fill="none" stroke="black" d="M933.54,-431.7C931.78,-423.98 929.66,-414.71 927.69,-406.11"/>
<polygon fill="black" stroke="black" points="931.05,-405.07 925.41,-396.1 924.22,-406.63 931.05,-405.07"/>
</g>
<!-- Unix/TS++ -->
<g id="node34" class="node">
<title>Unix/TS++</title>
<ellipse fill="#b2dfee" stroke="#b2dfee" cx="860.5" cy="-306" rx="63.89" ry="18"/>
<text text-anchor="middle" x="860.5" y="-302.3" font-family="Times,serif" font-size="14.00">Unix/TS++</text>
</g>
<!-- CB Unix 3&#45;&gt;Unix/TS++ -->
<g id="edge38" class="edge">
<title>CB Unix 3&#45;&gt;Unix/TS++</title>
<path fill="none" stroke="black" d="M907.04,-360.41C899.55,-351.82 890.26,-341.16 881.96,-331.63"/>
<polygon fill="black" stroke="black" points="884.48,-329.2 875.27,-323.96 879.2,-333.79 884.48,-329.2"/>
</g>
<!-- PDP&#45;11 Sys V -->
<g id="node35" class="node">
<title>PDP&#45;11 Sys V</title>
<ellipse fill="#b2dfee" stroke="#b2dfee" cx="1015.5" cy="-306" rx="73.39" ry="18"/>
<text text-anchor="middle" x="1015.5" y="-302.3" font-family="Times,serif" font-size="14.00">PDP&#45;11 Sys V</text>
</g>
<!-- CB Unix 3&#45;&gt;PDP&#45;11 Sys V -->
<g id="edge39" class="edge">
<title>CB Unix 3&#45;&gt;PDP&#45;11 Sys V</title>
<path fill="none" stroke="black" d="M942.83,-361.12C955.39,-351.76 971.48,-339.78 985.32,-329.47"/>
<polygon fill="black" stroke="black" points="987.67,-332.09 993.6,-323.31 983.49,-326.47 987.67,-332.09"/>
</g>
<!-- CB Unix 3&#45;&gt;TS 4.0 -->
<g id="edge46" class="edge">
<title>CB Unix 3&#45;&gt;TS 4.0</title>
<path fill="none" stroke="black" d="M871,-369.08C842.47,-362 808.42,-348.73 787.5,-324 773.03,-306.9 768.76,-281.45 767.83,-262.14"/>
<polygon fill="black" stroke="black" points="771.33,-262.06 767.61,-252.14 764.33,-262.21 771.33,-262.06"/>
</g>
<!-- Unix/TS++&#45;&gt;TS 4.0 -->
<g id="edge45" class="edge">
<title>Unix/TS++&#45;&gt;TS 4.0</title>
<path fill="none" stroke="black" d="M839.16,-288.76C826.41,-279.07 810.08,-266.64 796.32,-256.17"/>
<polygon fill="black" stroke="black" points="798.23,-253.22 788.15,-249.95 793.99,-258.79 798.23,-253.22"/>
</g>
<!-- USG 3.0&#45;&gt;Unix/TS 3.0 -->
<g id="edge41" class="edge">
<title>USG 3.0&#45;&gt;Unix/TS 3.0</title>
<path fill="none" stroke="black" d="M662.5,-431.7C662.5,-423.98 662.5,-414.71 662.5,-406.11"/>
<polygon fill="black" stroke="black" points="666,-406.1 662.5,-396.1 659,-406.1 666,-406.1"/>
</g>
<!-- Unix/TS 1.0 -->
<g id="node37" class="node">
<title>Unix/TS 1.0</title>
<ellipse fill="#b2dfee" stroke="#b2dfee" cx="796.5" cy="-450" rx="65.79" ry="18"/>
<text text-anchor="middle" x="796.5" y="-446.3" font-family="Times,serif" font-size="14.00">Unix/TS 1.0</text>
</g>
<!-- Unix/TS 1.0&#45;&gt;Unix/TS 3.0 -->
<g id="edge43" class="edge">
<title>Unix/TS 1.0&#45;&gt;Unix/TS 3.0</title>
<path fill="none" stroke="black" d="M767.42,-433.81C747.84,-423.58 721.82,-409.99 700.59,-398.9"/>
<polygon fill="black" stroke="black" points="702,-395.69 691.52,-394.16 698.76,-401.89 702,-395.69"/>
</g>
<!-- System V.0 -->
<g id="node39" class="node">
<title>System V.0</title>
<ellipse fill="#b2dfee" stroke="#b2dfee" cx="768.5" cy="-162" rx="61.99" ry="18"/>
<text text-anchor="middle" x="768.5" y="-158.3" font-family="Times,serif" font-size="14.00">System V.0</text>
</g>
<!-- TS 4.0&#45;&gt;System V.0 -->
<g id="edge47" class="edge">
<title>TS 4.0&#45;&gt;System V.0</title>
<path fill="none" stroke="black" d="M768.5,-215.7C768.5,-207.98 768.5,-198.71 768.5,-190.11"/>
<polygon fill="black" stroke="black" points="772,-190.1 768.5,-180.1 765,-190.1 772,-190.1"/>
</g>
<!-- System V.2 -->
<g id="node40" class="node">
<title>System V.2</title>
<ellipse fill="#b2dfee" stroke="#b2dfee" cx="768.5" cy="-90" rx="61.99" ry="18"/>
<text text-anchor="middle" x="768.5" y="-86.3" font-family="Times,serif" font-size="14.00">System V.2</text>
</g>
<!-- System V.0&#45;&gt;System V.2 -->
<g id="edge48" class="edge">
<title>System V.0&#45;&gt;System V.2</title>
<path fill="none" stroke="black" d="M768.5,-143.7C768.5,-135.98 768.5,-126.71 768.5,-118.11"/>
<polygon fill="black" stroke="black" points="772,-118.1 768.5,-108.1 765,-118.1 772,-118.1"/>
</g>
<!-- System V.3 -->
<g id="node41" class="node">
<title>System V.3</title>
<ellipse fill="#b2dfee" stroke="#b2dfee" cx="768.5" cy="-18" rx="61.99" ry="18"/>
<text text-anchor="middle" x="768.5" y="-14.3" font-family="Times,serif" font-size="14.00">System V.3</text>
</g>
<!-- System V.2&#45;&gt;System V.3 -->
<g id="edge49" class="edge">
<title>System V.2&#45;&gt;System V.3</title>
<path fill="none" stroke="black" d="M768.5,-71.7C768.5,-63.98 768.5,-54.71 768.5,-46.11"/>
<polygon fill="black" stroke="black" points="772,-46.1 768.5,-36.1 765,-46.1 772,-46.1"/>
</g>
</g>
</svg>
